# Blender v2.68 (sub 0) OBJ File: ''
# www.blender.org
o Cone
v -0.076195 0.248002 -3.181102
v 0.306487 2.248002 -2.257221
v 0.111398 0.248002 -3.238008
v 0.306487 0.248002 -3.257222
v 0.501577 0.248002 -3.238008
v 0.689171 0.248002 -3.181102
v -0.249082 0.248002 -3.088693
v -0.400619 0.248001 -2.964330
v -0.524982 0.248001 -2.812793
v -0.617392 0.248001 -2.639907
v -0.674298 0.248001 -2.452313
v -0.693513 0.248001 -2.257223
v -0.674298 0.248001 -2.062133
v -0.617393 0.248001 -1.874539
v -0.524983 0.248001 -1.701653
v -0.400620 0.248001 -1.550116
v -0.249084 0.248001 -1.425753
v -0.076197 0.248001 -1.333343
v 0.111396 0.248001 -1.276437
v 0.306487 0.248001 -1.257222
v 0.501577 0.248001 -1.276437
v 0.689170 0.248001 -1.333343
v 0.862057 0.248001 -1.425753
v 1.013594 0.248001 -1.550115
v 1.137957 0.248001 -1.701652
v 1.230367 0.248001 -1.874539
v 1.287272 0.248001 -2.062132
v 1.306487 0.248001 -2.257222
v 1.287272 0.248001 -2.452312
v 1.230367 0.248001 -2.639906
v 1.137957 0.248001 -2.812792
v 1.013594 0.248001 -2.964329
v 0.862057 0.248002 -3.088692
vn -0.259889 0.445489 -0.856736
vn 0.087750 0.445489 -0.890977
vn -0.087750 0.445489 -0.890977
vn 0.259888 0.445489 -0.856737
vn -0.422033 0.445489 -0.789575
vn -0.567964 0.445489 -0.692067
vn -0.692067 0.445488 -0.567964
vn -0.789573 0.445488 -0.422037
vn -0.856737 0.445488 -0.259888
vn -0.890977 0.445488 -0.087755
vn -0.890977 0.445488 0.087755
vn -0.856738 0.445488 0.259884
vn -0.789572 0.445488 0.422037
vn -0.692067 0.445488 0.567964
vn -0.567966 0.445488 0.692066
vn -0.422035 0.445488 0.789574
vn -0.259889 0.445488 0.856737
vn -0.087754 0.445488 0.890977
vn 0.087755 0.445488 0.890977
vn 0.259889 0.445488 0.856737
vn 0.422035 0.445488 0.789574
vn 0.567961 0.445488 0.692070
vn 0.692067 0.445488 0.567964
vn 0.789573 0.445488 0.422036
vn 0.856738 0.445488 0.259886
vn 0.890977 0.445488 0.087755
vn 0.890977 0.445488 -0.087755
vn 0.856738 0.445488 -0.259884
vn 0.789573 0.445489 -0.422037
vn 0.692067 0.445489 -0.567964
vn 0.567964 0.445489 -0.692067
vn 0.422038 0.445489 -0.789572
vn 0.000000 -1.000000 -0.000001
vn 0.000000 -1.000000 -0.000000
s off
f 1//1 2//1 3//1
f 4//2 2//2 5//2
f 3//3 2//3 4//3
f 5//4 2//4 6//4
f 2//5 1//5 7//5
f 8//6 2//6 7//6
f 9//7 2//7 8//7
f 10//8 2//8 9//8
f 11//9 2//9 10//9
f 12//10 2//10 11//10
f 13//11 2//11 12//11
f 14//12 2//12 13//12
f 15//13 2//13 14//13
f 16//14 2//14 15//14
f 17//15 2//15 16//15
f 18//16 2//16 17//16
f 19//17 2//17 18//17
f 20//18 2//18 19//18
f 21//19 2//19 20//19
f 22//20 2//20 21//20
f 23//21 2//21 22//21
f 24//22 2//22 23//22
f 25//23 2//23 24//23
f 26//24 2//24 25//24
f 27//25 2//25 26//25
f 28//26 2//26 27//26
f 29//27 2//27 28//27
f 30//28 2//28 29//28
f 31//29 2//29 30//29
f 32//30 2//30 31//30
f 33//31 2//31 32//31
f 6//32 2//32 33//32
f 4//33 5//33 3//33
f 5//34 6//34 3//34
f 6//34 33//34 3//34
f 33//34 32//34 3//34
f 32//34 31//34 3//34
f 31//34 30//34 3//34
f 30//34 29//34 3//34
f 29//34 28//34 3//34
f 28//34 27//34 3//34
f 27//34 26//34 3//34
f 26//34 25//34 3//34
f 25//34 24//34 3//34
f 17//34 19//34 18//34
f 17//34 20//34 19//34
f 20//34 22//34 21//34
f 17//34 22//34 20//34
f 1//34 8//34 7//34
f 8//34 1//34 3//34
f 3//34 24//34 8//34
f 24//34 23//34 8//34
f 22//34 17//34 16//34
f 23//34 22//34 16//34
f 23//34 16//34 15//34
f 23//34 15//34 14//34
f 8//34 23//34 9//34
f 23//34 14//34 9//34
f 14//34 13//34 9//34
f 13//34 12//34 9//34
f 12//34 11//34 9//34
f 11//34 10//34 9//34
